<svg width="1600" height="900" viewBox="0 0 1600 900" fill="none" xmlns="http://www.w3.org/2000/svg">
  <rect width="1600" height="900" rx="40" fill="#070B18"/>
  <rect width="1600" height="900" fill="url(#paint0_radial)"/>
  <rect x="42" y="42" width="1516" height="816" rx="32" stroke="rgba(255,255,255,0.1)"/>
  <circle cx="1290" cy="170" r="180" fill="#38BDF8" fill-opacity="0.18"/>
  <circle cx="260" cy="720" r="230" fill="#FACC15" fill-opacity="0.12"/>
  <circle cx="910" cy="680" r="220" fill="#8B5CF6" fill-opacity="0.16"/>
  <rect x="120" y="150" width="300" height="28" rx="14" fill="rgba(255,255,255,0.07)"/>
  <rect x="120" y="215" width="620" height="96" rx="18" fill="rgba(255,255,255,0.05)"/>
  <rect x="120" y="340" width="560" height="22" rx="11" fill="rgba(255,255,255,0.06)"/>
  <rect x="120" y="378" width="520" height="22" rx="11" fill="rgba(255,255,255,0.05)"/>
  <rect x="120" y="470" width="190" height="58" rx="29" fill="#FACC15"/>
  <rect x="328" y="470" width="180" height="58" rx="29" fill="rgba(255,255,255,0.06)"/>
  <rect x="960" y="164" width="360" height="500" rx="34" fill="rgba(255,255,255,0.04)"/>
  <rect x="1010" y="214" width="260" height="400" rx="30" fill="url(#paint1_linear)"/>
  <rect x="1060" y="264" width="160" height="300" rx="26" fill="rgba(5,10,24,0.58)"/>
  <text x="120" y="172" fill="#CBD5E1" font-family="Arial, sans-serif" font-size="18" letter-spacing="6">PREMIUM TCG STORE</text>
  <text x="120" y="278" fill="white" font-family="Arial, sans-serif" font-size="64" font-weight="700">ElitePull</text>
  <text x="120" y="545" fill="#050A18" font-family="Arial, sans-serif" font-size="20" font-weight="700">Explorar catalogo</text>
  <text x="1014" y="250" fill="#E2E8F0" font-family="Arial, sans-serif" font-size="20" letter-spacing="5">TCG DROP</text>
  <text x="1088" y="430" fill="white" font-family="Arial, sans-serif" font-size="40" font-weight="700">TCG</text>
  <defs>
    <radialGradient id="paint0_radial" cx="0" cy="0" r="1" gradientUnits="userSpaceOnUse" gradientTransform="translate(800 0) rotate(90) scale(900 1600)">
      <stop stop-color="#0F172A"/>
      <stop offset="1" stop-color="#020617"/>
    </radialGradient>
    <linearGradient id="paint1_linear" x1="1010" y1="214" x2="1270" y2="614" gradientUnits="userSpaceOnUse">
      <stop stop-color="#FACC15"/>
      <stop offset="0.5" stop-color="#38BDF8"/>
      <stop offset="1" stop-color="#8B5CF6"/>
    </linearGradient>
  </defs>
</svg>
