<svg width="1600" height="900" viewBox="0 0 1600 900" fill="none" xmlns="http://www.w3.org/2000/svg">
  <rect width="1600" height="900" rx="40" fill="#090A19"/>
  <circle cx="1340" cy="180" r="210" fill="#D946EF" fill-opacity="0.18"/>
  <circle cx="260" cy="760" r="230" fill="#38BDF8" fill-opacity="0.14"/>
  <rect x="96" y="96" width="1408" height="708" rx="36" fill="url(#paint0_linear)" fill-opacity="0.22" stroke="rgba(255,255,255,0.1)"/>
  <rect x="126" y="160" width="210" height="28" rx="14" fill="rgba(255,255,255,0.08)"/>
  <rect x="126" y="226" width="620" height="88" rx="18" fill="rgba(255,255,255,0.05)"/>
  <rect x="126" y="350" width="520" height="22" rx="11" fill="rgba(255,255,255,0.06)"/>
  <rect x="126" y="388" width="468" height="22" rx="11" fill="rgba(255,255,255,0.05)"/>
  <rect x="126" y="470" width="210" height="56" rx="28" fill="#D946EF"/>
  <rect x="948" y="146" width="430" height="560" rx="36" fill="rgba(255,255,255,0.04)"/>
  <rect x="1010" y="198" width="306" height="456" rx="32" fill="url(#paint1_linear)"/>
  <text x="126" y="182" fill="#CBD5E1" font-family="Arial, sans-serif" font-size="18" letter-spacing="6">EARLY ACCESS</text>
  <text x="126" y="290" fill="white" font-family="Arial, sans-serif" font-size="62" font-weight="700">Preventa</text>
  <text x="126" y="505" fill="white" font-family="Arial, sans-serif" font-size="20" font-weight="700">Reservar ahora</text>
  <text x="1082" y="430" fill="#F8FAFC" font-family="Arial, sans-serif" font-size="34" font-weight="700">DROP</text>
  <defs>
    <linearGradient id="paint0_linear" x1="96" y1="96" x2="1504" y2="804" gradientUnits="userSpaceOnUse">
      <stop stop-color="#D946EF"/>
      <stop offset="0.5" stop-color="#38BDF8"/>
      <stop offset="1" stop-color="#F59E0B"/>
    </linearGradient>
    <linearGradient id="paint1_linear" x1="1010" y1="198" x2="1316" y2="654" gradientUnits="userSpaceOnUse">
      <stop stop-color="#F472B6"/>
      <stop offset="0.55" stop-color="#38BDF8"/>
      <stop offset="1" stop-color="#FACC15"/>
    </linearGradient>
  </defs>
</svg>
