<svg width="1600" height="900" viewBox="0 0 1600 900" fill="none" xmlns="http://www.w3.org/2000/svg">
  <rect width="1600" height="900" rx="40" fill="#06111D"/>
  <circle cx="1240" cy="150" r="180" fill="#34D399" fill-opacity="0.16"/>
  <circle cx="340" cy="770" r="240" fill="#0EA5E9" fill-opacity="0.12"/>
  <rect x="78" y="78" width="1444" height="744" rx="34" fill="rgba(255,255,255,0.03)" stroke="rgba(255,255,255,0.1)"/>
  <rect x="126" y="160" width="240" height="28" rx="14" fill="rgba(255,255,255,0.08)"/>
  <rect x="126" y="226" width="580" height="88" rx="18" fill="rgba(255,255,255,0.05)"/>
  <rect x="126" y="350" width="500" height="22" rx="11" fill="rgba(255,255,255,0.06)"/>
  <rect x="126" y="470" width="210" height="56" rx="28" fill="#10B981"/>
  <rect x="932" y="156" width="462" height="548" rx="38" fill="rgba(255,255,255,0.04)"/>
  <rect x="988" y="212" width="160" height="420" rx="30" fill="url(#paint0_linear)"/>
  <rect x="1178" y="250" width="160" height="344" rx="30" fill="url(#paint1_linear)"/>
  <text x="126" y="182" fill="#CBD5E1" font-family="Arial, sans-serif" font-size="18" letter-spacing="6">SEALED SHOWCASE</text>
  <text x="126" y="290" fill="white" font-family="Arial, sans-serif" font-size="62" font-weight="700">Sellado premium</text>
  <text x="126" y="506" fill="#04131C" font-family="Arial, sans-serif" font-size="20" font-weight="700">Ver seleccion</text>
  <defs>
    <linearGradient id="paint0_linear" x1="988" y1="212" x2="1148" y2="632" gradientUnits="userSpaceOnUse">
      <stop stop-color="#34D399"/>
      <stop offset="1" stop-color="#0EA5E9"/>
    </linearGradient>
    <linearGradient id="paint1_linear" x1="1178" y1="250" x2="1338" y2="594" gradientUnits="userSpaceOnUse">
      <stop stop-color="#FACC15"/>
      <stop offset="1" stop-color="#14B8A6"/>
    </linearGradient>
  </defs>
</svg>
